<svg xmlns="http://www.w3.org/2000/svg" width="200" height="200" fill="none" viewBox="0 0 200 200"><path fill="#18181B" d="M0 0h200v200H0z"/><path fill="#fafafa" d="M159.256 46.826v31.23H85.782l-19.898 33.446a4.31 4.31 0 0 1-3.72 2.111H45.061a4.327 4.327 0 0 1-4.326-4.326v-31.23h41.872L99.978 48.84A12.96 12.96 0 0 1 111.13 42.5h43.801a4.327 4.327 0 0 1 4.325 4.326"/><path fill="#fafafa" d="M40.735 153.174v-31.23h73.475l19.897-33.446a4.31 4.31 0 0 1 3.72-2.11h17.112a4.327 4.327 0 0 1 4.326 4.325v31.231h-41.872l-17.371 29.215A12.96 12.96 0 0 1 88.87 157.5H45.06a4.327 4.327 0 0 1-4.325-4.326"/></svg>